<?xml version="1.0" encoding="utf-8"?>
<!-- Generator: Adobe Illustrator 16.0.4, SVG Export Plug-In . SVG Version: 6.00 Build 0)  -->
<!DOCTYPE svg PUBLIC "-//W3C//DTD SVG 1.1//EN" "http://www.w3.org/Graphics/SVG/1.1/DTD/svg11.dtd">
<svg version="1.1" id="Layer_1" xmlns="http://www.w3.org/2000/svg" xmlns:xlink="http://www.w3.org/1999/xlink" x="0px" y="0px"
	 width="112px" height="112px" viewBox="0 0 112 112" enable-background="new 0 0 112 112" xml:space="preserve">
<path d="M93.339,82.035v3.438c0,2.842-4.471,3.438-8.937,3.438h-4.998c-3.769,0-4.883-0.914-4.883-2.901
	c0-2.146,3.229-3.226,6.112-4.515c2.646-1.184,6.664-2.901,8.694-2.901C91.406,78.595,93.334,78.716,93.339,82.035z M79.334,108.705
	v-6.039H32.667v6.039c0,1.819-1.476,3.295-3.294,3.295h53.256C80.809,112,79.334,110.524,79.334,108.705z M56-0.001
	c-30.926,0-56,25.074-56,56c0,6.775,0,56,0,56h17.294c-1.819,0-3.294-1.476-3.294-3.295v-9.479V98V80.369
	c0-0.625,0.215-2.953,0.514-3.459c0,0,0.299-0.867,0.774-2.244h-3.733c-1.717,0-2.632-1.392-2.044-3.111l1.064-3.113
	c0.593-1.717,2.464-3.105,4.181-3.105h3.78c2.931-8.358,6.524-18.448,7.382-20.083c1.82-3.472,6.402-5.03,9.698-6.132
	c0,0,4.704-1.787,20.384-1.787s20.384,1.787,20.384,1.787c2.813,0.784,7.938,2.399,9.534,5.973
	c1.027,2.301,4.568,12.11,7.467,20.239h3.859c1.717,0,3.588,1.392,4.177,3.111l1.063,3.113c0.593,1.717-0.322,3.105-2.039,3.105
	h-3.748c0.486,1.383,0.789,2.246,0.789,2.246C97.785,77.414,98,79.742,98,80.367V98v1.229v9.479c0,1.818-1.475,3.295-3.295,3.295
	H112c0,0,0-49.227,0-56C112,25.073,86.926-0.001,56-0.001z M37.482,86.011c0-2.152-3.229-3.227-6.112-4.516
	c-2.646-1.181-6.664-2.9-8.694-2.9c-2.082,0-4.009,0.121-4.009,3.439v3.438c0,2.842,4.466,3.438,8.937,3.438h4.998
	C36.363,88.912,37.482,87.998,37.482,86.011z M86.286,66.583c-2.32-9.402-5.224-15.988-5.951-18.172
	c-0.06-0.047-0.614-4.167-24.335-4.167c-23.716,0-24.173,3.607-24.645,4.774c-0.588,1.605-3.263,7.364-5.717,17.565
	c0,0,10.088,3.41,30.36,3.41C76.27,69.994,86.286,66.583,86.286,66.583z"/>
</svg>
