<?xml version="1.0" encoding="utf-8"?>
<!-- Generator: Adobe Illustrator 16.0.4, SVG Export Plug-In . SVG Version: 6.00 Build 0)  -->
<!DOCTYPE svg PUBLIC "-//W3C//DTD SVG 1.1//EN" "http://www.w3.org/Graphics/SVG/1.1/DTD/svg11.dtd">
<svg version="1.1" id="Layer_1" xmlns="http://www.w3.org/2000/svg" xmlns:xlink="http://www.w3.org/1999/xlink" x="0px" y="0px"
	 width="112px" height="98px" viewBox="0 0 112 98" enable-background="new 0 0 112 98" xml:space="preserve">
<path d="M104.127,28h-3.484c-2.543-8.654-5.1-17.084-5.965-19.04C93.002,5.161,87.668,0,56,0C24.333,0,19.059,5.437,17.155,9.128
	c-0.721,1.397-3.299,9.988-5.877,18.872H7.874C0.874,28,0,35.438,0,37.459C0,39.484,0.985,42,4.485,42H7.27
	c-1.23,4.352-2.065,7.341-2.065,7.341c-0.308,0.536-0.537,3.011-0.537,3.673v26.32v1.012v14.359c0,1.82,1.476,3.295,3.295,3.295
	h16.744C26.526,98,28,96.525,28,94.705V84h56v10.705C84,96.525,85.475,98,87.295,98h16.744c1.82,0,3.295-1.475,3.295-3.295V80.346
	v-1.012v-26.32c0-0.662-0.229-3.137-0.537-3.673c0,0-0.846-2.989-2.094-7.341h2.812c3.5,0,4.484-2.516,4.484-4.541
	C112,35.438,111.123,28,104.127,28z M28.471,65.734h-5.244c-4.687,0-9.371-0.635-9.371-3.654v-7.298
	c0-3.523,2.021-3.654,4.199-3.654c2.129,0,6.348,1.825,9.119,3.08c3.024,1.367,10.36,6.165,10.36,8.446
	C37.535,64.764,32.416,65.734,28.471,65.734z M15.391,38.332c3.15-10.967,6.575-24.635,7.262-26.283
	C23.199,10.854,31.155,7.191,56,7.191c24.845,0,32.927,4.186,32.994,4.237c0.857,2.24,4.568,16.781,7.535,26.903
	c0,0-18.4,3.729-40.529,3.729C33.872,42.061,15.391,38.332,15.391,38.332z M74.471,62.659c0-2.282,7.332-7.075,10.359-8.446
	c2.777-1.256,6.99-3.08,9.119-3.08c2.18,0,4.199,0.126,4.199,3.654v7.299h-0.004c0,3.014-4.686,3.653-9.371,3.653h-5.24
	C79.586,65.739,74.471,64.77,74.471,62.659z"/>
</svg>
