<?xml version="1.0" encoding="utf-8"?>
<!-- Generator: Adobe Illustrator 16.0.4, SVG Export Plug-In . SVG Version: 6.00 Build 0)  -->
<!DOCTYPE svg PUBLIC "-//W3C//DTD SVG 1.1//EN" "http://www.w3.org/Graphics/SVG/1.1/DTD/svg11.dtd">
<svg version="1.1" id="Layer_1" xmlns="http://www.w3.org/2000/svg" xmlns:xlink="http://www.w3.org/1999/xlink" x="0px" y="0px"
	 width="112px" height="111.865px" viewBox="0 0 112 111.865" enable-background="new 0 0 112 111.865" xml:space="preserve">
<path d="M93.338,81.899v3.438c0,2.842-4.471,3.439-8.938,3.439h-4.998c-3.766,0-4.881-0.914-4.881-2.902
	c0-2.146,3.229-3.225,6.112-4.514c2.646-1.186,6.664-2.902,8.694-2.902C91.406,78.461,93.334,78.581,93.338,81.899z M79.334,108.569
	v-6.039H32.667v6.039c0,1.819-1.476,3.295-3.294,3.295h53.256C80.809,111.864,79.334,110.389,79.334,108.569z M109.41,38.593
	c-9.114-6.911-39.564-29.685-49.924-37.431c-2.077-1.554-4.887-1.549-6.959,0.014c-10.321,7.789-40.65,30.65-49.862,37.422
	C0.975,39.839,0,41.794,0,43.894v67.97h17.294c-1.819,0-3.294-1.476-3.294-3.295v-9.478v-1.228V80.233
	c0-0.625,0.215-2.953,0.514-3.458c0,0,0.299-0.868,0.774-2.245h-3.733c-1.717,0-2.632-1.392-2.044-3.11l1.064-3.113
	c0.593-1.717,2.464-3.107,4.181-3.107h3.78c2.931-8.357,6.524-18.448,7.382-20.082c1.82-3.472,6.402-5.03,9.698-6.132
	c0,0,4.704-1.787,20.384-1.787s20.384,1.787,20.384,1.787c2.813,0.784,7.938,2.399,9.534,5.973c1.027,2.301,4.568,12.11,7.467,20.24
	h3.859c1.717,0,3.588,1.392,4.177,3.11l1.063,3.113c0.593,1.717-0.322,3.107-2.039,3.107h-3.748
	c0.486,1.382,0.789,2.245,0.789,2.245C97.785,77.279,98,79.607,98,80.232v17.632v1.228v9.479c0,1.82-1.475,3.295-3.295,3.295H112
	V43.829C112,41.766,111.057,39.839,109.41,38.593z M37.482,85.877c0-2.152-3.229-3.226-6.113-4.515
	c-2.646-1.181-6.664-2.901-8.694-2.901c-2.081,0-4.009,0.12-4.009,3.438v3.438c0,2.842,4.466,3.439,8.938,3.439h4.998
	C36.363,88.778,37.482,87.864,37.482,85.877z M86.287,66.448c-2.32-9.403-5.223-15.988-5.951-18.172
	c-0.061-0.047-0.615-4.167-24.336-4.167c-23.716,0-24.173,3.607-24.645,4.774c-0.588,1.605-3.263,7.364-5.717,17.565
	c0,0,10.088,3.411,30.36,3.411S86.287,66.448,86.287,66.448z"/>
</svg>
