<?xml version="1.0" encoding="utf-8"?>
<!-- Generator: Adobe Illustrator 16.0.4, SVG Export Plug-In . SVG Version: 6.00 Build 0)  -->
<!DOCTYPE svg PUBLIC "-//W3C//DTD SVG 1.1//EN" "http://www.w3.org/Graphics/SVG/1.1/DTD/svg11.dtd">
<svg version="1.1" id="Layer_1" xmlns="http://www.w3.org/2000/svg" xmlns:xlink="http://www.w3.org/1999/xlink" x="0px" y="0px"
	 width="112px" height="70px" viewBox="0 0 112 70" enable-background="new 0 0 112 70" xml:space="preserve">
<path d="M87.273,24.938c0,0-14.668-17.153-18.508-21.797C66.268,0.121,63.08,0,60.668,0c-1.014,0-19.091,0-22.116,0
	c-3.019,0-4.681,0.563-6.221,3.136C31.631,4.303,23.334,28,23.334,28H5.032C0.874,28,0,31.526,0,32.886c0,2.119,0,15.782,0,15.782
	C0,52.453,3.509,56,7,56h2.333c0,7.731,6.267,14,14,14c7.731,0,14-6.269,14-14h42c0,7.731,6.266,14,14,14c7.73,0,14-6.269,14-14
	c0-0.385-0.027-0.763-0.059-1.14c2.172-1.674,4.725-4.758,4.725-6.192c0,0,0-10.873,0-12.991
	C112.002,30.619,103.064,28.827,87.273,24.938z M23.335,63.001c-3.858,0-7-3.141-7-7s3.142-7,7-7s7,3.141,7,7
	S27.196,63.001,23.335,63.001z M34.858,28.001c-2.129,0-4.01-0.695-3.01-4.084c0.965-3.28,3.682-12.486,4.32-14.083
	c0.729-1.812,2.143-2.413,4.443-2.413c1.031,0,5.312,0,9.724,0v20.58C42.571,28.001,35.959,28.001,34.858,28.001z M78.648,28.001
	c0,0-14.088,0-26.313,0V7.421c4.725,0,9.051,0,9.051,0c1.797,0,3.869,0.635,5.004,1.956L79.648,25.08
	C81.127,27.04,80.502,28.001,78.648,28.001z M93.336,63.001c-3.859,0-7-3.141-7-7s3.141-7,7-7s7,3.141,7,7
	S97.195,63.001,93.336,63.001z"/>
</svg>
