<?xml version="1.0" encoding="utf-8"?>
<!-- Generator: Adobe Illustrator 16.0.4, SVG Export Plug-In . SVG Version: 6.00 Build 0)  -->
<!DOCTYPE svg PUBLIC "-//W3C//DTD SVG 1.1//EN" "http://www.w3.org/Graphics/SVG/1.1/DTD/svg11.dtd">
<svg version="1.1" id="Layer_1" xmlns="http://www.w3.org/2000/svg" xmlns:xlink="http://www.w3.org/1999/xlink" x="0px" y="0px"
	 width="112px" height="88.667px" viewBox="0 0 112 88.667" enable-background="new 0 0 112 88.667" xml:space="preserve">
<path d="M100.404,60.888c7.225-1.402,11.428,0.461,11.428-1.625c0-3.176-8.207-8.838-17.857-8.24
	c0.342-0.338,0.525-0.617,0.525-0.855c0-2.059-0.438-18.718-8.777-31.397c-2.561,0-11.197-3.458-12.936-8.2
	c1.999,2.052,5.66,3.431,9.863,3.431c5.908,0,6.016,0,6.016-7.005c0-6.995-0.162-6.995-6.016-6.995
	c-5.068,0-9.36,2.009-10.883,4.786c-2.731,0.691-12.504,3.172-13.636,3.581c-3.606,1.312-1.68,6.249,1.913,5.413
	c2.979-0.695,8.434-4.592,8.434-4.592c4.308,7.999,9.733,31.005,7.957,34.342C70.662,54.367,64.283,57.166,52.5,57.166
	c-14.438,0-15.54-0.229-8.792-13.724c1.567-3.141,0.079-6.109-3.425-6.109c-1.731,0-29.783,0-29.783,0
	C6.836,39.633,0,51.589,0,57.166c0,3.457,3.154,6.15,8.209,8.215c-2.197,2.473-3.543,5.719-3.543,9.285c0,7.732,6.268,14,14,14
	s14-6.268,14-14c0-1.549-0.262-3.035-0.727-4.428c6.771,0.645,13.888,0.928,20.561,0.928c3.743,0,9.525,0,13.721,0
	c1.965,0,5.482-2.4,9.746-5.822c-0.89,4.912,0.643,9.121,1.906,9.121c3.311,0,3.406-3.096,8.104-6.943
	C84.729,69.613,84,72.052,84,74.666c0,7.732,6.268,14,14,14s14-6.268,14-14C112,67.755,106.988,62.029,100.404,60.888z
	 M18.667,81.666c-3.858,0-7-3.141-7-7c0-3.188,2.146-5.881,5.067-6.723c1.549,0.348,3.164,0.666,4.842,0.951
	c-1.186,1.916-2.403,3.701-3.529,5.348c-0.234,0.344-0.146,0.811,0.196,1.043c0.129,0.09,0.276,0.131,0.423,0.131
	c0.238,0,0.475-0.113,0.62-0.326c1.22-1.783,2.545-3.727,3.825-5.826c1.56,1.285,2.556,3.229,2.556,5.402
	C25.667,78.525,22.525,81.666,18.667,81.666z M98,81.666c-3.859,0-7-3.141-7-7c0-1.938,0.793-3.691,2.068-4.963l4.346,5.432
	c0.148,0.186,0.365,0.281,0.586,0.281c0.165,0,0.33-0.053,0.469-0.164c0.323-0.258,0.377-0.73,0.117-1.055l-4.342-5.428
	c1.086-0.695,2.373-1.104,3.756-1.104c3.859,0,7,3.143,7,7C105,78.525,101.859,81.666,98,81.666z M9.333,28
	c0-2.576,2.09-4.668,4.667-4.668h28c2.576,0,4.667,2.092,4.667,4.668s-2.09,4.666-4.667,4.666H14
	C11.424,32.666,9.333,30.576,9.333,28z"/>
</svg>
