<?xml version="1.0" encoding="utf-8"?>
<!-- Generator: Adobe Illustrator 16.0.4, SVG Export Plug-In . SVG Version: 6.00 Build 0)  -->
<!DOCTYPE svg PUBLIC "-//W3C//DTD SVG 1.1//EN" "http://www.w3.org/Graphics/SVG/1.1/DTD/svg11.dtd">
<svg version="1.1" id="Layer_1" xmlns="http://www.w3.org/2000/svg" xmlns:xlink="http://www.w3.org/1999/xlink" x="0px" y="0px"
	 width="93.334px" height="79.333px" viewBox="0 0 93.334 79.333" enable-background="new 0 0 93.334 79.333" xml:space="preserve">
<path d="M8.167,70h15.167v6.039c0,1.819-1.475,3.295-3.294,3.295H7.962c-1.819,0-3.294-1.476-3.294-3.295V66.56
	C4.667,68.46,6.234,70,8.167,70z M73.295,79.333h12.077c1.819,0,3.295-1.476,3.295-3.295V66.56c0,1.898-1.567,3.438-3.5,3.438
	H70.001v6.039C70.001,77.858,71.477,79.333,73.295,79.333z M56.001,6.276V3.294c0-1.82-1.476-3.295-3.295-3.295H40.628
	c-1.819,0-3.295,1.475-3.295,3.295v2.982c2.56-0.152,5.638-0.252,9.333-0.252C50.363,6.024,53.441,6.125,56.001,6.276z M84.835,42
	h2.487c0.518,1.396,0.83,2.244,0.83,2.244c0.3,0.506,0.515,2.834,0.515,3.459v17.631H70.001V70H23.334v-4.666H4.667V47.703
	c0-0.625,0.215-2.953,0.513-3.459c0,0,0.307-0.85,0.813-2.244H2.223c-1.718,0-2.633-1.392-2.045-3.111l1.068-3.109
	c0.588-1.721,2.459-3.111,4.177-3.111h3.976c2.892-7.867,6.349-17.125,7.188-18.723c1.82-3.472,6.402-5.031,9.698-6.132
	c0,0,2.754-1.043,11.05-1.535v3.056h18.667V6.276c8.295,0.492,11.05,1.535,11.05,1.535c2.812,0.784,7.934,2.399,9.534,5.974
	c1.004,2.245,4.406,11.242,7.263,18.883h-2.207L84.835,42z M28.145,53.345c0-2.146-3.229-3.225-6.112-4.514
	c-2.646-1.186-6.664-2.902-8.694-2.902c-2.077,0-4.004,0.121-4.004,3.439v3.438c0,2.838,4.466,3.438,8.938,3.438h4.992
	C27.029,56.248,28.145,55.333,28.145,53.345z M46.662,37.333c20.271,0,30.287-3.412,30.287-3.412
	c-2.319-9.402-5.219-14.629-5.95-16.813c-0.058-0.051-0.616-4.167-24.332-4.167s-24.173,3.604-24.646,4.773
	c-0.588,1.605-3.262,6.007-5.717,16.209C16.307,33.921,26.391,37.333,46.662,37.333z M84.001,52.808h-0.006v-3.439
	c0-3.318-1.927-3.438-4.004-3.438c-2.029,0-6.048,1.723-8.693,2.901c-2.885,1.289-6.112,2.361-6.112,4.515
	c0,1.987,1.119,2.901,4.881,2.901h4.998C79.534,56.248,84.001,55.649,84.001,52.808z M93.156,38.888l-1.063-3.109
	c-0.588-1.721-2.46-3.111-4.178-3.111h-4.067c1.41,3.771,2.686,7.201,3.476,9.332h3.79C92.829,42,93.744,40.608,93.156,38.888z"/>
</svg>
