<?xml version="1.0" encoding="utf-8"?>
<!-- Generator: Adobe Illustrator 16.0.4, SVG Export Plug-In . SVG Version: 6.00 Build 0)  -->
<!DOCTYPE svg PUBLIC "-//W3C//DTD SVG 1.1//EN" "http://www.w3.org/Graphics/SVG/1.1/DTD/svg11.dtd">
<svg version="1.1" id="Layer_1" xmlns="http://www.w3.org/2000/svg" xmlns:xlink="http://www.w3.org/1999/xlink" x="0px" y="0px"
	 width="107.277px" height="94.333px" viewBox="0 0 107.277 94.333" enable-background="new 0 0 107.277 94.333"
	 xml:space="preserve">
<path d="M23.333,47.667C10.453,47.667,0,58.12,0,70.999c0,12.881,10.453,23.334,23.333,23.334s23.333-10.453,23.333-23.334
	C46.666,58.12,36.213,47.667,23.333,47.667z M23.333,84.999c-7.719,0-14-6.281-14-14s6.281-14,14-14s14,6.281,14,14
	S31.052,84.999,23.333,84.999z M97.695,67.971l9.188-23.722c0.939-2.08,0.146-3.793-1.785-3.793l-16.494-1.838
	c0-3.904,0-11.09,0-14.378c0-8.62,4.636-9.273,4.636-9.273v-4.634c-5.558,0-13.906,2.389-13.907,13.906c0,3.014,0,9.309,0,13.344
	l-25.475-2.838l-7.98-31.506C45.413,1.422,43.358,0,41.202,0H12.833c-2.481,0-4.5,1.852-4.5,4.127v30.557
	c-0.758,1.653-1.217,4.974-1.708,7.262c-2.23,1.343-4.314,2.962-6.206,4.845c-0.392,0.391-0.394,1.023-0.003,1.414
	c0.39,0.393,1.021,0.395,1.415,0.004c1.913-1.903,4.039-3.516,6.316-4.83c24.143-8.477,40.434,8.476,45.418,22.48
	c0.17,1.303,0.269,2.627,0.269,3.975c0,0.555,0.447,1,1,1c0.02,0,0.036-0.01,0.056-0.01c0.01,0.057,0.024,0.117,0.033,0.176h18.664
	c-2.223,2.479-3.587,5.742-3.587,9.334c0,7.732,6.268,14,14,14c7.731,0,14-6.268,14-14c0-3.668-1.423-6.998-3.732-9.494
	C95.678,70.446,97.084,69.325,97.695,67.971z M12.833,2h28.368c1.242,0,2.497,0.794,2.736,1.732l7.795,30.775l-7.562-0.842H10.333
	V4.126C10.333,2.954,11.455,2,12.833,2z M83.998,87.333c-3.859,0-7-3.141-7-7s3.141-7,7-7c3.858,0,7,3.141,7,7
	S87.857,87.333,83.998,87.333z"/>
</svg>
