<?xml version="1.0" encoding="utf-8"?>
<!-- Generator: Adobe Illustrator 16.0.4, SVG Export Plug-In . SVG Version: 6.00 Build 0)  -->
<!DOCTYPE svg PUBLIC "-//W3C//DTD SVG 1.1//EN" "http://www.w3.org/Graphics/SVG/1.1/DTD/svg11.dtd">
<svg version="1.1" id="Layer_1" xmlns="http://www.w3.org/2000/svg" xmlns:xlink="http://www.w3.org/1999/xlink" x="0px" y="0px"
	 width="112px" height="74.667px" viewBox="0 0 112 74.667" enable-background="new 0 0 112 74.667" xml:space="preserve">
<path d="M107.334,0H4.667C2.09,0,0,2.091,0,4.667v51.334c0,2.576,2.091,4.666,4.667,4.666h5.927c-0.797,1.375-1.26,2.965-1.26,4.666
	c0,5.152,4.182,9.334,9.333,9.334S28,70.486,28,65.333c0-1.701-0.463-3.291-1.26-4.666h2.521C28.463,62.042,28,63.632,28,65.333
	c0,5.152,4.181,9.334,9.333,9.334s9.333-4.182,9.333-9.334c0-1.701-0.463-3.291-1.26-4.666h21.189
	c-0.797,1.375-1.262,2.965-1.262,4.666c0,5.152,4.182,9.334,9.332,9.334c5.152,0,9.334-4.182,9.334-9.334
	c0-1.701-0.463-3.291-1.26-4.666h2.521C84.465,62.042,84,63.632,84,65.333c0,5.152,4.184,9.334,9.334,9.334
	c5.152,0,9.332-4.182,9.332-9.334c0-1.701-0.463-3.291-1.26-4.666h5.928c2.576,0,4.666-2.09,4.666-4.666V4.667
	C112,2.091,109.908,0,107.334,0z M18.667,67.667c-1.288,0-2.333-1.045-2.333-2.334c0-1.287,1.045-2.332,2.333-2.332
	S21,64.046,21,65.333C21,66.623,19.955,67.667,18.667,67.667z M37.333,67.667c-1.288,0-2.333-1.045-2.333-2.334
	c0-1.287,1.045-2.332,2.333-2.332s2.333,1.045,2.333,2.332C39.667,66.623,38.621,67.667,37.333,67.667z M74.666,67.667
	c-1.287,0-2.332-1.045-2.332-2.334c0-1.287,1.045-2.332,2.332-2.332c1.289,0,2.334,1.045,2.334,2.332
	C77,66.623,75.955,67.667,74.666,67.667z M93.334,67.667c-1.289,0-2.334-1.045-2.334-2.334c0-1.287,1.045-2.332,2.334-2.332
	c1.287,0,2.332,1.045,2.332,2.332C95.666,66.623,94.621,67.667,93.334,67.667z M42,11.667c0-1.287,1.045-2.332,2.333-2.332h23.333
	c1.289,0,2.334,1.045,2.334,2.332v18.666c0,1.289-1.045,2.334-2.334,2.334H44.333c-1.288,0-2.333-1.045-2.333-2.334V11.667
	L42,11.667z M9.333,30.333V11.667c0-1.287,1.045-2.332,2.333-2.332h18.667c1.288,0,2.333,1.045,2.333,2.332v18.666
	c0,1.289-1.045,2.334-2.333,2.334H11.666C10.378,32.667,9.333,31.622,9.333,30.333z M102.666,30.333
	c0,1.289-1.045,2.334-2.332,2.334H81.666c-1.287,0-2.332-1.045-2.332-2.334V11.667c0-1.287,1.045-2.332,2.332-2.332h18.668
	c1.287,0,2.332,1.045,2.332,2.332V30.333z"/>
</svg>
