<?xml version="1.0" encoding="utf-8"?>
<!-- Generator: Adobe Illustrator 16.0.4, SVG Export Plug-In . SVG Version: 6.00 Build 0)  -->
<!DOCTYPE svg PUBLIC "-//W3C//DTD SVG 1.1//EN" "http://www.w3.org/Graphics/SVG/1.1/DTD/svg11.dtd">
<svg version="1.1" id="Layer_1" xmlns="http://www.w3.org/2000/svg" xmlns:xlink="http://www.w3.org/1999/xlink" x="0px" y="0px"
	 width="93.333px" height="108.084px" viewBox="0 0 93.333 108.084" enable-background="new 0 0 93.333 108.084"
	 xml:space="preserve">
<path d="M88.667,42.75h-1.715c-1.332-8.942-2.951-18.666-2.951-18.666C83.615,20.448,81.535,13.5,68.48,11.381l6.811-10.215
	c0.229-0.345,0.138-0.81-0.207-1.04c-0.346-0.231-0.812-0.136-1.041,0.208l-7.207,10.811c-0.486-0.06-0.986-0.114-1.502-0.161
	v-0.901c0-2.576-2.09-4.667-4.666-4.667h-28c-2.576,0-4.668,2.09-4.668,4.667v0.896c-0.517,0.047-1.017,0.101-1.504,0.161
	L19.291,0.334c-0.229-0.345-0.696-0.439-1.039-0.208c-0.346,0.229-0.438,0.695-0.209,1.04l6.807,10.21
	C11.768,13.495,9.673,20.448,9.333,24.083c0,0-1.621,9.724-2.951,18.666H4.667C2.089,42.75,0,44.84,0,47.417v9.333
	c0,2.576,2.092,4.668,4.668,4.668c0,9.409,0,28,0,28c0,3.454,1.879,6.46,4.666,8.074v7.297c0,1.819,1.475,3.295,3.295,3.295h12.076
	c1.82,0,3.295-1.476,3.295-3.295V98.75h37.334v6.039c0,1.819,1.475,3.295,3.295,3.295h12.078c1.819,0,3.295-1.476,3.295-3.295
	v-7.297c2.787-1.614,4.666-4.62,4.666-8.074c0,0,0-18.591,0-28c2.576,0,4.666-2.092,4.666-4.668v-9.333
	C93.333,44.84,91.244,42.75,88.667,42.75z M72.333,84.75c-3.863,0-7-3.135-7-7c0-3.862,3.137-7,7-7c3.865,0,7,3.138,7,7
	C79.333,81.615,76.199,84.75,72.333,84.75z M35,10.083h23.334c1.289,0,2.334,1.045,2.334,2.333s-1.045,2.333-2.334,2.333H35
	c-1.287,0-2.332-1.045-2.332-2.333S33.712,10.083,35,10.083z M16.796,32.27c0.615-3.883,4.713-8.26,29.871-8.26
	s29.026,3.78,29.871,8.27c0.844,4.489,2.403,19.819,2.403,19.819c0.213,2.563-1.709,4.653-4.274,4.653l-56,0.01
	c-2.567,0-4.489-2.09-4.275-4.649C14.392,52.112,16.18,36.151,16.796,32.27z M21,84.75c-3.863,0-7-3.135-7-7c0-3.862,3.137-7,7-7
	c3.864,0,7,3.138,7,7C28,81.615,24.864,84.75,21,84.75z"/>
</svg>
